<svg xmlns="http://www.w3.org/2000/svg" viewBox="0 0 200 200">
<rect x="0" y="0" width="200" height="200" rx="46" fill="#0F1A16"/>
<path d="M 65.00,44.00 C 65.64,44.47 67.65,45.87 68.83,46.80 C 70.01,47.73 71.17,48.67 72.07,49.60 C 72.97,50.53 73.75,51.47 74.24,52.40 C 74.73,53.33 75.00,54.27 75.00,55.20 C 75.00,56.13 74.73,57.07 74.24,58.00 C 73.75,58.93 72.97,59.87 72.07,60.80 C 71.17,61.73 70.01,62.67 68.83,63.60 C 67.65,64.53 66.28,65.47 65.00,66.40 C 63.72,67.33 62.35,68.27 61.17,69.20 C 59.99,70.13 58.83,71.07 57.93,72.00 C 57.03,72.93 56.25,73.87 55.76,74.80 C 55.27,75.73 55.00,76.67 55.00,77.60 C 55.00,78.53 55.27,79.47 55.76,80.40 C 56.25,81.33 57.03,82.27 57.93,83.20 C 58.83,84.13 59.99,85.07 61.17,86.00 C 62.35,86.93 63.72,87.87 65.00,88.80 C 66.28,89.73 67.65,90.67 68.83,91.60 C 70.01,92.53 71.17,93.47 72.07,94.40 C 72.97,95.33 73.75,96.27 74.24,97.20 C 74.73,98.13 75.00,99.07 75.00,100.00 C 75.00,100.93 74.73,101.87 74.24,102.80 C 73.75,103.73 72.97,104.67 72.07,105.60 C 71.17,106.53 70.01,107.47 68.83,108.40 C 67.65,109.33 66.28,110.27 65.00,111.20 C 63.72,112.13 62.35,113.07 61.17,114.00 C 59.99,114.93 58.83,115.87 57.93,116.80 C 57.03,117.73 56.25,118.67 55.76,119.60 C 55.27,120.53 55.00,121.47 55.00,122.40 C 55.00,123.33 55.27,124.27 55.76,125.20 C 56.25,126.13 57.03,127.07 57.93,128.00 C 58.83,128.93 59.99,129.87 61.17,130.80 C 62.35,131.73 63.72,132.67 65.00,133.60 C 66.28,134.53 67.65,135.47 68.83,136.40 C 70.01,137.33 71.17,138.27 72.07,139.20 C 72.97,140.13 73.75,141.07 74.24,142.00 C 74.73,142.93 75.00,143.87 75.00,144.80 C 75.00,145.73 74.73,146.67 74.24,147.60 C 73.75,148.53 72.97,149.47 72.07,150.40 C 71.17,151.33 70.01,152.27 68.83,153.20 C 67.65,154.13 65.64,155.53 65.00,156.00 " fill="none" stroke="#BFDAD3" stroke-width="11" stroke-linecap="round"/>
<path d="M 100.00,44.00 C 100.64,44.47 102.65,45.87 103.83,46.80 C 105.01,47.73 106.17,48.67 107.07,49.60 C 107.97,50.53 108.75,51.47 109.24,52.40 C 109.73,53.33 110.00,54.27 110.00,55.20 C 110.00,56.13 109.73,57.07 109.24,58.00 C 108.75,58.93 107.97,59.87 107.07,60.80 C 106.17,61.73 105.01,62.67 103.83,63.60 C 102.65,64.53 101.28,65.47 100.00,66.40 C 98.72,67.33 97.35,68.27 96.17,69.20 C 94.99,70.13 93.83,71.07 92.93,72.00 C 92.03,72.93 91.25,73.87 90.76,74.80 C 90.27,75.73 90.00,76.67 90.00,77.60 C 90.00,78.53 90.27,79.47 90.76,80.40 C 91.25,81.33 92.03,82.27 92.93,83.20 C 93.83,84.13 94.99,85.07 96.17,86.00 C 97.35,86.93 98.72,87.87 100.00,88.80 C 101.28,89.73 102.65,90.67 103.83,91.60 C 105.01,92.53 106.17,93.47 107.07,94.40 C 107.97,95.33 108.75,96.27 109.24,97.20 C 109.73,98.13 110.00,99.07 110.00,100.00 C 110.00,100.93 109.73,101.87 109.24,102.80 C 108.75,103.73 107.97,104.67 107.07,105.60 C 106.17,106.53 105.01,107.47 103.83,108.40 C 102.65,109.33 101.28,110.27 100.00,111.20 C 98.72,112.13 97.35,113.07 96.17,114.00 C 94.99,114.93 93.83,115.87 92.93,116.80 C 92.03,117.73 91.25,118.67 90.76,119.60 C 90.27,120.53 90.00,121.47 90.00,122.40 C 90.00,123.33 90.27,124.27 90.76,125.20 C 91.25,126.13 92.03,127.07 92.93,128.00 C 93.83,128.93 94.99,129.87 96.17,130.80 C 97.35,131.73 98.72,132.67 100.00,133.60 C 101.28,134.53 102.65,135.47 103.83,136.40 C 105.01,137.33 106.17,138.27 107.07,139.20 C 107.97,140.13 108.75,141.07 109.24,142.00 C 109.73,142.93 110.00,143.87 110.00,144.80 C 110.00,145.73 109.73,146.67 109.24,147.60 C 108.75,148.53 107.97,149.47 107.07,150.40 C 106.17,151.33 105.01,152.27 103.83,153.20 C 102.65,154.13 100.64,155.53 100.00,156.00 " fill="none" stroke="#81C6B4" stroke-width="11" stroke-linecap="round"/>
<path d="M 135.00,44.00 C 135.64,44.47 137.65,45.87 138.83,46.80 C 140.01,47.73 141.17,48.67 142.07,49.60 C 142.97,50.53 143.75,51.47 144.24,52.40 C 144.73,53.33 145.00,54.27 145.00,55.20 C 145.00,56.13 144.73,57.07 144.24,58.00 C 143.75,58.93 142.97,59.87 142.07,60.80 C 141.17,61.73 140.01,62.67 138.83,63.60 C 137.65,64.53 136.28,65.47 135.00,66.40 C 133.72,67.33 132.35,68.27 131.17,69.20 C 129.99,70.13 128.83,71.07 127.93,72.00 C 127.03,72.93 126.25,73.87 125.76,74.80 C 125.27,75.73 125.00,76.67 125.00,77.60 C 125.00,78.53 125.27,79.47 125.76,80.40 C 126.25,81.33 127.03,82.27 127.93,83.20 C 128.83,84.13 129.99,85.07 131.17,86.00 C 132.35,86.93 133.72,87.87 135.00,88.80 C 136.28,89.73 137.65,90.67 138.83,91.60 C 140.01,92.53 141.17,93.47 142.07,94.40 C 142.97,95.33 143.75,96.27 144.24,97.20 C 144.73,98.13 145.00,99.07 145.00,100.00 C 145.00,100.93 144.73,101.87 144.24,102.80 C 143.75,103.73 142.97,104.67 142.07,105.60 C 141.17,106.53 140.01,107.47 138.83,108.40 C 137.65,109.33 136.28,110.27 135.00,111.20 C 133.72,112.13 132.35,113.07 131.17,114.00 C 129.99,114.93 128.83,115.87 127.93,116.80 C 127.03,117.73 126.25,118.67 125.76,119.60 C 125.27,120.53 125.00,121.47 125.00,122.40 C 125.00,123.33 125.27,124.27 125.76,125.20 C 126.25,126.13 127.03,127.07 127.93,128.00 C 128.83,128.93 129.99,129.87 131.17,130.80 C 132.35,131.73 133.72,132.67 135.00,133.60 C 136.28,134.53 137.65,135.47 138.83,136.40 C 140.01,137.33 141.17,138.27 142.07,139.20 C 142.97,140.13 143.75,141.07 144.24,142.00 C 144.73,142.93 145.00,143.87 145.00,144.80 C 145.00,145.73 144.73,146.67 144.24,147.60 C 143.75,148.53 142.97,149.47 142.07,150.40 C 141.17,151.33 140.01,152.27 138.83,153.20 C 137.65,154.13 135.64,155.53 135.00,156.00 " fill="none" stroke="#55A999" stroke-width="11" stroke-linecap="round"/>
</svg>
